<?xml version="1.0" encoding="UTF-8"?>
<svg id="Layer_2" data-name="Layer 2" xmlns="http://www.w3.org/2000/svg" viewBox="0 0 406.54 357.19">
  <defs>
    <style>
      .cls-1 {
        fill: #111827;
        stroke-width: 0px;
      }
    </style>
  </defs>
  <g id="Layer_1-2" data-name="Layer 1">
    <g>
      <path class="cls-1" d="M35.61,83.73l41.26,81.98c1.95,3.87-.86,8.43-5.19,8.43H5.82c-3.28,0-5.93-2.71-5.82-5.99,1.05-31.02,10.21-59.98,25.43-84.82,2.39-3.9,8.12-3.69,10.17.4Z"/>
      <path class="cls-1" d="M102.8,21.52l72.57,144.19c1.95,3.87-.86,8.43-5.19,8.43h-50.73c-2.2,0-4.21-1.24-5.19-3.2L54.85,52.93c-1.17-2.33-.65-5.15,1.27-6.92,11.61-10.7,24.67-19.83,38.86-27.08,2.86-1.46,6.37-.29,7.81,2.58Z"/>
      <path class="cls-1" d="M188.83.62l83.09,165.09c1.95,3.87-.86,8.43-5.19,8.43h-48.79c-2.2,0-4.21-1.24-5.19-3.2L132.88,12.29c-1.71-3.4.25-7.5,3.97-8.31,11.98-2.61,24.42-3.98,37.19-3.98,4.98,0,9.9.21,14.78.62h0Z"/>
      <path class="cls-1" d="M342.26,174.14h-27.76c-2.2,0-4.21-1.24-5.19-3.2L234.11,21.56c-2.43-4.84,2.48-10.08,7.47-7.98,60.89,25.64,104.14,84.92,106.5,154.56.11,3.28-2.54,6-5.82,6Z"/>
      <path class="cls-1" d="M127.82,187.34l80.51,159.94c2.15,4.27-1.49,9.18-6.21,8.35-79.79-14.03-140.87-82.37-143.67-165.51-.11-3.27,2.54-5.98,5.82-5.98h58.36c2.2,0,4.21,1.24,5.19,3.2Z"/>
      <path class="cls-1" d="M226.32,187.34l75.44,149.89c1.51,3.01.18,6.69-2.93,7.97-14.6,6.02-30.21,10.11-46.49,11.96-2.43.27-4.78-.98-5.88-3.17l-81.25-161.42c-1.95-3.87.86-8.43,5.19-8.43h50.73c2.2,0,4.21,1.24,5.19,3.2Z"/>
      <path class="cls-1" d="M322.87,187.34l48.54,96.43c1.01,2,.77,4.4-.6,6.18-9.64,12.58-20.95,23.8-33.6,33.34-2.91,2.19-7.09,1.24-8.73-2.01l-64.79-128.71c-1.95-3.87.86-8.43,5.19-8.43h48.79c2.2,0,4.21,1.24,5.19,3.2Z"/>
      <path class="cls-1" d="M406.53,190.11c-.62,18.43-4.1,36.12-10.02,52.67-1.72,4.81-8.38,5.19-10.67.63l-25.59-50.84c-1.95-3.87.86-8.43,5.19-8.43h35.27c3.27,0,5.93,2.7,5.82,5.97Z"/>
    </g>
  </g>
</svg>